<svg width="37" height="25" viewBox="0 0 37 25" fill="none" xmlns="http://www.w3.org/2000/svg">
<path fill-rule="evenodd" clip-rule="evenodd" d="M11.6148 24.8219L19.132 24.9575C19.144 24.9575 19.1679 24.9575 19.1679 24.9752C23.354 25.0518 27.4326 24.8101 31.6068 24.5094C34.9378 24.2794 35.7272 21.8974 36.1398 19.0554C36.6541 15.6238 36.7677 12.1509 36.4986 8.69571C36.4858 8.53257 36.4733 8.36796 36.4608 8.20233C36.2106 4.89591 35.9293 1.17908 31.9656 0.494059C31.1224 0.346653 30.2612 0.216936 29.406 0.193351C21.3088 -0.0660825 13.1398 -0.130941 5.02461 0.423304C2.62056 0.576606 1.06569 1.97991 0.670997 4.3325C-0.0286907 8.52472 -0.172217 12.829 0.198558 17.0566C0.203186 17.1083 0.20781 17.1601 0.212447 17.2122C0.47751 20.1861 0.787238 23.6611 4.35482 24.3797C6.2755 24.7736 8.23105 24.7893 10.1903 24.8051C10.6651 24.8089 11.1401 24.8127 11.6148 24.8219ZM18.6708 15.5219C17.3569 16.2664 16.0401 17.0126 14.7126 17.7641V7.16269C16.1423 7.97128 17.562 8.77616 18.9832 9.58186C20.671 10.5387 22.3607 11.4967 24.0717 12.4634C22.2639 13.4858 20.4702 14.5022 18.6708 15.5219Z" fill="#FF0000"/>
</svg>
